  <svg xmlns="http://www.w3.org/2000/svg" width="308" height="127" viewBox="0 0 308 127">
                            <g fill="none" fill-rule="evenodd" opacity=".8">
                                <path fill="#212121" d="M70.992 115.45c-.46 3.105-1.983 5.692-4.57 7.762-2.588 2.07-5.55 3.105-8.884 3.105-3.335 0-6.009-1.035-8.021-3.105-2.013-2.07-2.789-4.657-2.329-7.762l2.07-14.145H11.137c-3.335 0-5.951-1.035-7.849-3.104C1.391 96.13.442 93.716.442 90.956c0-.92.288-2.07.863-3.45a42.062 42.062 0 0 1 1.897-3.967L47.016 7.124a14.124 14.124 0 0 1 5.002-4.916C54.088 1 56.273.397 58.573.397c2.76 0 5.203 1.006 7.33 3.018 2.128 2.013 3.192 4.399 3.192 7.159 0 1.035-.115 1.897-.345 2.587-.23.69-.575 1.438-1.035 2.243-3.335 5.75-6.526 11.27-9.574 16.559a7845.006 7845.006 0 0 0-8.97 15.61 7845.007 7845.007 0 0 1-8.969 15.611c-3.047 5.29-6.238 10.81-9.573 16.56h21.389l3.795-26.392c.46-3.105 1.983-5.692 4.57-7.762 2.588-2.07 5.55-3.105 8.884-3.105 3.22 0 5.865 1.035 7.935 3.105 2.07 2.07 2.875 4.657 2.415 7.762l-3.795 26.392h2.415c2.99 0 5.433.948 7.33 2.846 1.898 1.897 2.847 4.168 2.847 6.813 0 3.22-1.322 6.009-3.967 8.366-2.645 2.358-5.75 3.536-9.315 3.536h-2.07l-2.07 14.145z"></path>
                                <path fill="#343434" d="M67.838 86.177l8.339.032a4.225 4.225 0 0 1 4.205 4.407 4.571 4.571 0 0 1-4.584 4.375l-9.214-.033-2.714 18.999a5.112 5.112 0 0 1-5.06 4.388 3.845 3.845 0 0 1-3.807-4.388l2.719-19.03-47.626-.168a2.733 2.733 0 0 1-2.722-2.65 2.93 2.93 0 0 1 .278-2.307L53.839 10.09a4.07 4.07 0 0 1 4.951-1.77 2.943 2.943 0 0 1 1.528 4.206L18.736 85.987l40.24.156 4.446-31.117a5.112 5.112 0 0 1 5.06-4.388 3.845 3.845 0 0 1 3.806 4.388l-4.45 31.151z"></path>
                                <g>
                                    <path fill="#212121" d="M290.134 115.45c-.46 3.105-1.984 5.692-4.571 7.762-2.588 2.07-5.549 3.105-8.884 3.105s-6.008-1.035-8.02-3.105c-2.013-2.07-2.79-4.657-2.33-7.762l2.07-14.145h-38.12c-3.335 0-5.952-1.035-7.849-3.104-1.897-2.07-2.846-4.485-2.846-7.245 0-.92.287-2.07.862-3.45a42.062 42.062 0 0 1 1.898-3.967l43.813-76.415a14.124 14.124 0 0 1 5.002-4.916C273.23 1 275.414.397 277.714.397c2.76 0 5.204 1.006 7.331 3.018 2.128 2.013 3.191 4.399 3.191 7.159 0 1.035-.115 1.897-.345 2.587-.23.69-.575 1.438-1.035 2.243-3.335 5.75-6.526 11.27-9.573 16.559a7845.006 7845.006 0 0 0-8.97 15.61 7845.007 7845.007 0 0 1-8.97 15.611c-3.047 5.29-6.238 10.81-9.573 16.56h21.39l3.794-26.392c.46-3.105 1.984-5.692 4.571-7.762 2.588-2.07 5.549-3.105 8.884-3.105 3.22 0 5.865 1.035 7.935 3.105 2.07 2.07 2.874 4.657 2.414 7.762l-3.794 26.392h2.414c2.99 0 5.434.948 7.331 2.846 1.898 1.897 2.847 4.168 2.847 6.813 0 3.22-1.323 6.009-3.968 8.366-2.645 2.358-5.75 3.536-9.314 3.536h-2.07l-2.07 14.145z"></path>
                                    <path fill="#343434" d="M287.173 86.177l8.339.032a4.225 4.225 0 0 1 4.205 4.407 4.571 4.571 0 0 1-4.584 4.375l-9.214-.033-2.714 18.999a5.112 5.112 0 0 1-5.06 4.388 3.845 3.845 0 0 1-3.807-4.388l2.719-19.03-47.626-.168a2.733 2.733 0 0 1-2.721-2.65 2.93 2.93 0 0 1 .277-2.307l46.188-79.712a4.07 4.07 0 0 1 4.95-1.77 2.943 2.943 0 0 1 1.528 4.206l-41.582 73.461 40.24.156 4.446-31.117a5.112 5.112 0 0 1 5.06-4.388 3.845 3.845 0 0 1 3.806 4.388l-4.45 31.151z"></path>
                                </g>
                            </g>
                        </svg>
